
<svg width="119px" height="78px" viewBox="0 0 119 78" version="1.1" xmlns="http://www.w3.org/2000/svg" xmlns:xlink="http://www.w3.org/1999/xlink">
    <!-- Generator: Sketch 47.1 (45422) - http://www.bohemiancoding.com/sketch -->
    <desc>Created with Sketch.</desc>
    <defs></defs>
    <g id="Page-1" stroke="none" stroke-width="1" fill="none" fill-rule="evenodd">
        <g id="Desktop" transform="translate(-369.000000, -2474.000000)" fill="#70D7FD">
            <g id="develop-real-relationships" transform="translate(-297.000000, 1986.000000)">
                <g id="image" transform="translate(428.000000, 137.000000)">
                    <g id="dots" transform="translate(238.000000, 351.000000)">
                        <circle id="Oval-5" cx="18" cy="46" r="4"></circle>
                        <circle id="Oval-5-Copy-3" cx="18" cy="60" r="4"></circle>
                        <circle id="Oval-5-Copy-4" cx="18" cy="73" r="4"></circle>
                        <circle id="Oval-5-Copy-5" cx="32" cy="73" r="4"></circle>
                        <circle id="Oval-5-Copy-6" cx="4" cy="73" r="4"></circle>
                        <circle id="Oval-5-Copy-7" transform="translate(4.000000, 60.000000) scale(1, -1) translate(-4.000000, -60.000000) " cx="4" cy="60" r="4"></circle>
                        <circle id="Oval-5-Copy-8" transform="translate(4.000000, 46.000000) scale(1, -1) translate(-4.000000, -46.000000) " cx="4" cy="46" r="4"></circle>
                        <circle id="Oval-5-Copy" cx="32" cy="46" r="4"></circle>
                        <circle id="Oval-5-Copy-2" cx="32" cy="60" r="4"></circle>
                        <circle id="Oval-5" cx="60" cy="46" r="4"></circle>
                        <circle id="Oval-5-Copy-3" cx="60" cy="60" r="4"></circle>
                        <circle id="Oval-5-Copy-4" cx="60" cy="73" r="4"></circle>
                        <circle id="Oval-5-Copy-5" cx="73" cy="73" r="4"></circle>
                        <circle id="Oval-5-Copy-6" cx="46" cy="73" r="4"></circle>
                        <circle id="Oval-5-Copy-7" transform="translate(46.000000, 60.000000) scale(1, -1) translate(-46.000000, -60.000000) " cx="46" cy="60" r="4"></circle>
                        <circle id="Oval-5-Copy-8" transform="translate(46.000000, 46.000000) scale(1, -1) translate(-46.000000, -46.000000) " cx="46" cy="46" r="4"></circle>
                        <circle id="Oval-5-Copy" cx="73" cy="46" r="4"></circle>
                        <circle id="Oval-5-Copy-2" cx="73" cy="60" r="4"></circle>
                        <circle id="Oval-5" cx="18" cy="4" r="4"></circle>
                        <circle id="Oval-5-Copy-3" cx="18" cy="18" r="4"></circle>
                        <circle id="Oval-5-Copy-4" cx="18" cy="32" r="4"></circle>
                        <circle id="Oval-5-Copy-5" cx="32" cy="32" r="4"></circle>
                        <circle id="Oval-5-Copy-6" cx="4" cy="32" r="4"></circle>
                        <circle id="Oval-5-Copy-7" transform="translate(4.000000, 18.000000) scale(1, -1) translate(-4.000000, -18.000000) " cx="4" cy="18" r="4"></circle>
                        <circle id="Oval-5-Copy-8" transform="translate(4.000000, 4.000000) scale(1, -1) translate(-4.000000, -4.000000) " cx="4" cy="4" r="4"></circle>
                        <circle id="Oval-5-Copy" cx="32" cy="4" r="4"></circle>
                        <circle id="Oval-5-Copy-2" cx="32" cy="18" r="4"></circle>
                        <circle id="Oval-5" cx="60" cy="4" r="4"></circle>
                        <circle id="Oval-5-Copy-3" cx="60" cy="18" r="4"></circle>
                        <circle id="Oval-5-Copy-4" cx="60" cy="32" r="4"></circle>
                        <circle id="Oval-5-Copy-5" cx="73" cy="32" r="4"></circle>
                        <circle id="Oval-5-Copy-6" cx="46" cy="32" r="4"></circle>
                        <circle id="Oval-5-Copy-7" transform="translate(46.000000, 18.000000) scale(1, -1) translate(-46.000000, -18.000000) " cx="46" cy="18" r="4"></circle>
                        <circle id="Oval-5-Copy-8" transform="translate(46.000000, 4.000000) scale(1, -1) translate(-46.000000, -4.000000) " cx="46" cy="4" r="4"></circle>
                        <circle id="Oval-5-Copy" cx="73" cy="4" r="4"></circle>
                        <circle id="Oval-5-Copy-2" cx="73" cy="18" r="4"></circle>
                        <circle id="Oval-5" cx="101" cy="46" r="4"></circle>
                        <circle id="Oval-5-Copy-3" cx="101" cy="60" r="4"></circle>
                        <circle id="Oval-5-Copy-4" cx="101" cy="74" r="4"></circle>
                        <circle id="Oval-5-Copy-5" cx="115" cy="74" r="4"></circle>
                        <circle id="Oval-5-Copy-6" cx="87" cy="74" r="4"></circle>
                        <circle id="Oval-5-Copy-7" transform="translate(87.000000, 60.000000) scale(1, -1) translate(-87.000000, -60.000000) " cx="87" cy="60" r="4"></circle>
                        <circle id="Oval-5-Copy-8" transform="translate(87.000000, 46.000000) scale(1, -1) translate(-87.000000, -46.000000) " cx="87" cy="46" r="4"></circle>
                        <circle id="Oval-5-Copy" cx="115" cy="46" r="4"></circle>
                        <circle id="Oval-5-Copy-2" cx="115" cy="60" r="4"></circle>
                        <circle id="Oval-5" cx="101" cy="4" r="4"></circle>
                        <circle id="Oval-5-Copy-3" cx="101" cy="18" r="4"></circle>
                        <circle id="Oval-5-Copy-4" cx="101" cy="32" r="4"></circle>
                        <circle id="Oval-5-Copy-5" cx="115" cy="32" r="4"></circle>
                        <circle id="Oval-5-Copy-6" cx="87" cy="32" r="4"></circle>
                        <circle id="Oval-5-Copy-7" transform="translate(87.000000, 18.000000) scale(1, -1) translate(-87.000000, -18.000000) " cx="87" cy="18" r="4"></circle>
                        <circle id="Oval-5-Copy-8" transform="translate(87.000000, 4.000000) scale(1, -1) translate(-87.000000, -4.000000) " cx="87" cy="4" r="4"></circle>
                        <circle id="Oval-5-Copy" cx="115" cy="4" r="4"></circle>
                        <circle id="Oval-5-Copy-2" cx="115" cy="18" r="4"></circle>
                    </g>
                </g>
            </g>
        </g>
    </g>
</svg>
