
<svg width="119px" height="78px" viewBox="0 0 119 78" version="1.1" xmlns="http://www.w3.org/2000/svg" xmlns:xlink="http://www.w3.org/1999/xlink">
    <!-- Generator: Sketch 47.1 (45422) - http://www.bohemiancoding.com/sketch -->
    <desc>Created with Sketch.</desc>
    <defs></defs>
    <g id="Page-1" stroke="none" stroke-width="1" fill="none" fill-rule="evenodd">
        <g id="Desktop" transform="translate(-343.000000, -792.000000)" fill="#FED689">
            <g id="make-the-space-your-own" transform="translate(-349.000000, 660.000000)">
                <g id="image" transform="translate(0.000000, 90.000000)">
                    <g id="dots" transform="translate(692.000000, 42.000000)">
                        <circle id="Oval-5" cx="17.6605505" cy="45.5181492" r="3.8392501"></circle>
                        <circle id="Oval-5-Copy-3" cx="17.6605505" cy="59.3394495" r="3.8392501"></circle>
                        <circle id="Oval-5-Copy-4" cx="17.6605505" cy="73.1607499" r="3.8392501"></circle>
                        <circle id="Oval-5-Copy-5" cx="31.4818508" cy="73.1607499" r="3.8392501"></circle>
                        <circle id="Oval-5-Copy-6" cx="3.8392501" cy="73.1607499" r="3.8392501"></circle>
                        <circle id="Oval-5-Copy-7" transform="translate(3.839250, 59.339450) scale(1, -1) translate(-3.839250, -59.339450) " cx="3.8392501" cy="59.3394495" r="3.8392501"></circle>
                        <circle id="Oval-5-Copy-8" transform="translate(3.839250, 45.518149) scale(1, -1) translate(-3.839250, -45.518149) " cx="3.8392501" cy="45.5181492" r="3.8392501"></circle>
                        <circle id="Oval-5-Copy" cx="31.4818508" cy="45.5181492" r="3.8392501"></circle>
                        <circle id="Oval-5-Copy-2" cx="31.4818508" cy="59.3394495" r="3.8392501"></circle>
                        <circle id="Oval-5" cx="59.3394495" cy="45.5181492" r="3.8392501"></circle>
                        <circle id="Oval-5-Copy-3" cx="59.3394495" cy="59.3394495" r="3.8392501"></circle>
                        <circle id="Oval-5-Copy-4" cx="59.3394495" cy="73.1607499" r="3.8392501"></circle>
                        <circle id="Oval-5-Copy-5" cx="73.1607499" cy="73.1607499" r="3.8392501"></circle>
                        <circle id="Oval-5-Copy-6" cx="45.5181492" cy="73.1607499" r="3.8392501"></circle>
                        <circle id="Oval-5-Copy-7" transform="translate(45.518149, 59.339450) scale(1, -1) translate(-45.518149, -59.339450) " cx="45.5181492" cy="59.3394495" r="3.8392501"></circle>
                        <circle id="Oval-5-Copy-8" transform="translate(45.518149, 45.518149) scale(1, -1) translate(-45.518149, -45.518149) " cx="45.5181492" cy="45.5181492" r="3.8392501"></circle>
                        <circle id="Oval-5-Copy" cx="73.1607499" cy="45.5181492" r="3.8392501"></circle>
                        <circle id="Oval-5-Copy-2" cx="73.1607499" cy="59.3394495" r="3.8392501"></circle>
                        <circle id="Oval-5" cx="17.6605505" cy="3.8392501" r="3.8392501"></circle>
                        <circle id="Oval-5-Copy-3" cx="17.6605505" cy="17.6605505" r="3.8392501"></circle>
                        <circle id="Oval-5-Copy-4" cx="17.6605505" cy="31.4818508" r="3.8392501"></circle>
                        <circle id="Oval-5-Copy-5" cx="31.4818508" cy="31.4818508" r="3.8392501"></circle>
                        <circle id="Oval-5-Copy-6" cx="3.8392501" cy="31.4818508" r="3.8392501"></circle>
                        <circle id="Oval-5-Copy-7" transform="translate(3.839250, 17.660550) scale(1, -1) translate(-3.839250, -17.660550) " cx="3.8392501" cy="17.6605505" r="3.8392501"></circle>
                        <circle id="Oval-5-Copy-8" transform="translate(3.839250, 3.839250) scale(1, -1) translate(-3.839250, -3.839250) " cx="3.8392501" cy="3.8392501" r="3.8392501"></circle>
                        <circle id="Oval-5-Copy" cx="31.4818508" cy="3.8392501" r="3.8392501"></circle>
                        <circle id="Oval-5-Copy-2" cx="31.4818508" cy="17.6605505" r="3.8392501"></circle>
                        <circle id="Oval-5" cx="59.3394495" cy="3.8392501" r="3.8392501"></circle>
                        <circle id="Oval-5-Copy-3" cx="59.3394495" cy="17.6605505" r="3.8392501"></circle>
                        <circle id="Oval-5-Copy-4" cx="59.3394495" cy="31.4818508" r="3.8392501"></circle>
                        <circle id="Oval-5-Copy-5" cx="73.1607499" cy="31.4818508" r="3.8392501"></circle>
                        <circle id="Oval-5-Copy-6" cx="45.5181492" cy="31.4818508" r="3.8392501"></circle>
                        <circle id="Oval-5-Copy-7" transform="translate(45.518149, 17.660550) scale(1, -1) translate(-45.518149, -17.660550) " cx="45.5181492" cy="17.6605505" r="3.8392501"></circle>
                        <circle id="Oval-5-Copy-8" transform="translate(45.518149, 3.839250) scale(1, -1) translate(-45.518149, -3.839250) " cx="45.5181492" cy="3.8392501" r="3.8392501"></circle>
                        <circle id="Oval-5-Copy" cx="73.1607499" cy="3.8392501" r="3.8392501"></circle>
                        <circle id="Oval-5-Copy-2" cx="73.1607499" cy="17.6605505" r="3.8392501"></circle>
                        <circle id="Oval-5" cx="100.66055" cy="45.8392501" r="3.8392501"></circle>
                        <circle id="Oval-5-Copy-3" cx="100.66055" cy="59.6605505" r="3.8392501"></circle>
                        <circle id="Oval-5-Copy-4" cx="100.66055" cy="73.4818508" r="3.8392501"></circle>
                        <circle id="Oval-5-Copy-5" cx="114.481851" cy="73.4818508" r="3.8392501"></circle>
                        <circle id="Oval-5-Copy-6" cx="86.8392501" cy="73.4818508" r="3.8392501"></circle>
                        <circle id="Oval-5-Copy-7" transform="translate(86.839250, 59.660550) scale(1, -1) translate(-86.839250, -59.660550) " cx="86.8392501" cy="59.6605505" r="3.8392501"></circle>
                        <circle id="Oval-5-Copy-8" transform="translate(86.839250, 45.839250) scale(1, -1) translate(-86.839250, -45.839250) " cx="86.8392501" cy="45.8392501" r="3.8392501"></circle>
                        <circle id="Oval-5-Copy" cx="114.481851" cy="45.8392501" r="3.8392501"></circle>
                        <circle id="Oval-5-Copy-2" cx="114.481851" cy="59.6605505" r="3.8392501"></circle>
                        <circle id="Oval-5" cx="100.66055" cy="3.8392501" r="3.8392501"></circle>
                        <circle id="Oval-5-Copy-3" cx="100.66055" cy="17.6605505" r="3.8392501"></circle>
                        <circle id="Oval-5-Copy-4" cx="100.66055" cy="31.4818508" r="3.8392501"></circle>
                        <circle id="Oval-5-Copy-5" cx="114.481851" cy="31.4818508" r="3.8392501"></circle>
                        <circle id="Oval-5-Copy-6" cx="86.8392501" cy="31.4818508" r="3.8392501"></circle>
                        <circle id="Oval-5-Copy-7" transform="translate(86.839250, 17.660550) scale(1, -1) translate(-86.839250, -17.660550) " cx="86.8392501" cy="17.6605505" r="3.8392501"></circle>
                        <circle id="Oval-5-Copy-8" transform="translate(86.839250, 3.839250) scale(1, -1) translate(-86.839250, -3.839250) " cx="86.8392501" cy="3.8392501" r="3.8392501"></circle>
                        <circle id="Oval-5-Copy" cx="114.481851" cy="3.8392501" r="3.8392501"></circle>
                        <circle id="Oval-5-Copy-2" cx="114.481851" cy="17.6605505" r="3.8392501"></circle>
                    </g>
                </g>
            </g>
        </g>
    </g>
</svg>
